<?xml version="1.0" encoding="iso-8859-1"?>
<!-- Generator: Adobe Illustrator 16.0.0, SVG Export Plug-In . SVG Version: 6.00 Build 0)  -->
<!DOCTYPE svg PUBLIC "-//W3C//DTD SVG 1.1//EN" "http://www.w3.org/Graphics/SVG/1.1/DTD/svg11.dtd">
<svg version="1.1" id="Layer_1" xmlns="http://www.w3.org/2000/svg" xmlns:xlink="http://www.w3.org/1999/xlink" x="0px" y="0px"
	 width="180px" height="55px" viewBox="0 0 180 55" style="enable-background:new 0 0 180 55;" xml:space="preserve">
<rect x="5" y="5" style="fill:#EC9C8C;" width="10" height="50"/>
<rect x="15" y="25" style="fill:#EC9C8C;" width="10" height="10"/>
<rect x="25" y="5" style="fill:#EC9C8C;" width="10" height="50"/>
<rect x="45" y="5" style="fill:#EC9C8C;" width="10" height="45"/>
<rect x="50" y="50" style="fill:#EC9C8C;" width="5" height="5"/>
<rect x="55" y="45" style="fill:#EC9C8C;" width="15" height="10"/>
<rect x="65" y="5" style="fill:#EC9C8C;" width="10" height="45"/>
<rect x="85" y="5" style="fill:#EC9C8C;" width="10" height="50"/>
<rect x="105" y="10" style="fill:#EC9C8C;" width="10" height="45"/>
<rect x="95" y="5" style="fill:#EC9C8C;" width="15" height="10"/>
<rect x="125" y="5" style="fill:#EC9C8C;" width="10" height="50"/>
<rect x="135" y="25" style="fill:#EC9C8C;" width="5" height="10"/>
<rect x="140" y="20" style="fill:#EC9C8C;" width="5" height="20"/>
<rect x="145" y="5" style="fill:#EC9C8C;" width="10" height="20"/>
<rect x="145" y="35" style="fill:#EC9C8C;" width="10" height="20"/>
<rect x="165" y="45" style="fill:#EC9C8C;" width="10" height="10"/>
<rect x="170" y="25" style="fill:#EC9C8C;" width="10" height="20"/>
<rect x="165" y="10" style="fill:#EC9C8C;" width="5" height="25"/>
<rect x="170" y="5" style="fill:#EC9C8C;" width="10" height="10"/>
<rect x="170" y="15" style="fill:#EC9C8C;" width="5" height="10"/>
<rect x="175" y="45" style="fill:#EC9C8C;" width="5" height="5"/>
<rect style="fill:#FFD1AB;" width="5" height="55"/>
<rect x="5" style="fill:#FFD1AB;" width="5" height="5"/>
<rect x="20" y="35" style="fill:#FFD1AB;" width="5" height="20"/>
<rect x="20" style="fill:#FFD1AB;" width="5" height="25"/>
<rect x="25" style="fill:#FFD1AB;" width="5" height="5"/>
<rect x="40" style="fill:#FFD1AB;" width="10" height="5"/>
<rect x="40" y="5" style="fill:#FFD1AB;" width="5" height="45"/>
<rect x="50" y="50" style="fill:#FFD1AB;" width="5" height="5"/>
<rect x="80" style="fill:#FFD1AB;" width="25" height="5"/>
<rect x="80" y="5" style="fill:#FFD1AB;" width="5" height="50"/>
<rect x="100" y="15" style="fill:#FFD1AB;" width="5" height="40"/>
<rect x="120" style="fill:#FFD1AB;" width="5" height="55"/>
<rect x="125" style="fill:#FFD1AB;" width="5" height="5"/>
<rect x="140" style="fill:#FFD1AB;" width="5" height="15"/>
<rect x="140" y="15" style="fill:#FFD1AB;" width="5" height="5"/>
<rect x="145" style="fill:#FFD1AB;" width="5" height="5"/>
<rect x="140" y="40" style="fill:#FFD1AB;" width="5" height="15"/>
<rect x="160" y="45" style="fill:#FFD1AB;" width="5" height="10"/>
<rect x="165" y="35" style="fill:#FFD1AB;" width="5" height="10"/>
<rect x="160" y="5" style="fill:#FFD1AB;" width="5" height="25"/>
<rect x="165" y="5" style="fill:#FFD1AB;" width="5" height="5"/>
<rect x="165" style="fill:#FFD1AB;" width="10" height="5"/>
<rect x="60" style="fill:#FFD1AB;" width="5" height="45"/>
<rect x="65" style="fill:#FFD1AB;" width="5" height="5"/>
</svg>
